<?xml version="1.0" encoding="utf-8"?>
<!-- Generator: Adobe Illustrator 16.0.3, SVG Export Plug-In . SVG Version: 6.00 Build 0)  -->
<!DOCTYPE svg PUBLIC "-//W3C//DTD SVG 1.1//EN" "http://www.w3.org/Graphics/SVG/1.1/DTD/svg11.dtd">
<svg version="1.1" id="Layer_1" xmlns="http://www.w3.org/2000/svg" xmlns:xlink="http://www.w3.org/1999/xlink" x="0px" y="0px"
	 width="941.563px" height="323.813px" viewBox="0 0 941.563 323.813" enable-background="new 0 0 941.563 323.813"
	 xml:space="preserve">
<polygon points="0,111.793 268.123,138.956 73.593,213.371 "/>
<polygon points="276.389,144.866 84.541,224.245 160.636,323.813 "/>
<polygon points="86.974,237.037 46.634,254.282 61.656,215.854 63.672,210.719 "/>
<polygon fill="#FFFFFF" points="70.613,217.43 61.542,237.923 83.118,229.736 "/>
<text transform="matrix(1 0 0 1 516.0205 265.1543)" font-family="'MyriadPro-Regular'" font-size="131.0513">Contact</text>
<g>
	<g>
		<g>
			<g>
				<g>
					<g>
						<path fill="none" d="M304.77,155.441c-0.378,0.271,1.543-1.113,4.807-3.171c3.261-2.058,7.826-4.734,12.5-7.205
							c4.67-2.485,9.446-4.768,13.059-6.338c0.902-0.398,1.729-0.763,2.462-1.086c0.738-0.303,1.381-0.566,1.911-0.784
							c1.059-0.436,1.664-0.685,1.664-0.685l-19.56-48.619c0,0-0.772,0.317-2.124,0.873c-0.675,0.278-1.496,0.616-2.437,1.004
							c-0.928,0.408-1.976,0.869-3.118,1.371c-4.58,1.997-10.563,4.854-16.411,7.966c-5.859,3.099-11.581,6.45-15.878,9.161
							c-4.298,2.708-7.229,4.786-7.604,5.061L304.77,155.441z"/>
					</g>
					<path fill-rule="evenodd" clip-rule="evenodd" fill="#231F20" d="M319.27,115.124l2.224,4.746c0,0,1.962-0.95,3.963-1.81
						c0.997-0.44,1.993-0.88,2.74-1.21c0.753-0.315,1.255-0.526,1.255-0.526l-2.035-4.83c0,0-0.514,0.216-1.286,0.54
						c-0.765,0.338-1.785,0.788-2.805,1.239C321.276,114.153,319.27,115.124,319.27,115.124z"/>
					<path fill-rule="evenodd" clip-rule="evenodd" fill="#231F20" d="M305.028,122.395l2.543,4.583c0,0,0.478-0.262,1.193-0.656
						c0.716-0.395,1.669-0.922,2.638-1.421c0.965-0.506,1.93-1.013,2.654-1.392c0.73-0.368,1.216-0.614,1.216-0.614l-2.367-4.676
						c0,0-0.498,0.251-1.244,0.628c-0.74,0.388-1.727,0.906-2.714,1.424c-0.991,0.51-1.966,1.05-2.698,1.454
						C305.517,122.126,305.028,122.395,305.028,122.395z"/>
					<path fill-rule="evenodd" clip-rule="evenodd" fill="#231F20" d="M291.366,130.635l2.893,4.371c0,0,1.804-1.194,3.648-2.345
						c1.842-1.154,3.716-2.263,3.715-2.263l-2.684-4.501c0,0-1.919,1.137-3.811,2.322
						C293.232,129.4,291.366,130.636,291.366,130.635z"/>
				</g>
			</g>
			<g>
				<g>
					<g>
						<path fill="none" d="M341.172,136.172c0,0,0.151-0.063,0.435-0.18c0.283-0.119,0.699-0.291,1.233-0.486
							c1.064-0.402,2.586-0.978,4.411-1.668c3.664-1.264,8.555-2.969,13.458-4.206l1.833-0.501c0.609-0.141,1.216-0.281,1.818-0.42
							c1.203-0.279,2.387-0.554,3.533-0.82c2.285-0.417,4.419-0.865,6.237-1.147c1.814-0.259,3.326-0.476,4.385-0.627
							c0.531-0.091,0.938-0.098,1.221-0.132c0.281-0.026,0.431-0.039,0.431-0.039l-5.6-52.106c0,0-0.221,0.021-0.635,0.062
							c-0.411,0.049-1.029,0.079-1.786,0.198c-1.522,0.217-3.696,0.527-6.305,0.899c-2.596,0.406-5.571,1.007-8.775,1.618
							c-1.575,0.362-3.203,0.737-4.856,1.118c-0.826,0.194-1.658,0.389-2.493,0.586c-0.822,0.222-1.647,0.444-2.473,0.667
							c-6.65,1.702-13.031,3.902-17.806,5.568c-2.354,0.889-4.316,1.63-5.689,2.149c-0.689,0.256-1.22,0.473-1.581,0.624
							c-0.362,0.148-0.556,0.228-0.556,0.228L341.172,136.172z"/>
					</g>
					<path fill-rule="evenodd" clip-rule="evenodd" fill="#231F20" d="M364.793,99.924l0.994,5.146c0,0,2.127-0.394,4.254-0.787
						c2.139-0.305,4.277-0.61,4.277-0.61l-0.689-5.196c0,0-2.217,0.317-4.435,0.633C366.994,99.518,364.793,99.924,364.793,99.924z"
						/>
					<path fill-rule="evenodd" clip-rule="evenodd" fill="#231F20" d="M349.208,103.693l1.472,5.03c0,0,0.52-0.158,1.306-0.365
						c0.785-0.213,1.832-0.497,2.878-0.781c2.087-0.601,4.204-1.06,4.204-1.06l-1.215-5.099c0,0-2.187,0.477-4.334,1.093
						c-1.079,0.293-2.157,0.585-2.966,0.805C349.743,103.531,349.208,103.694,349.208,103.693z"/>
					<path fill-rule="evenodd" clip-rule="evenodd" fill="#231F20" d="M334.094,108.819l1.873,4.895c0,0,0.509-0.192,1.271-0.482
						c0.766-0.279,1.773-0.697,2.804-1.039c2.055-0.709,4.11-1.418,4.11-1.418l-1.656-4.972c0,0-2.11,0.728-4.22,1.457
						c-1.06,0.352-2.091,0.778-2.877,1.065C334.616,108.621,334.094,108.819,334.094,108.819z"/>
				</g>
			</g>
			<g>
				<g>
					<g>
						<path fill="none" d="M380.167,125.945c0,0,0.599-0.056,1.647-0.153c1.046-0.091,2.553-0.288,4.319-0.315
							c1.773-0.069,3.854-0.214,6.022-0.122c1.088,0.027,2.225,0,3.357,0.057c1.123,0.084,2.264,0.169,3.404,0.255
							c0.569,0.044,1.145,0.065,1.707,0.124c0.555,0.08,1.107,0.159,1.656,0.238c1.098,0.146,2.179,0.291,3.225,0.431
							c2.037,0.418,3.938,0.809,5.568,1.144c1.582,0.449,2.901,0.823,3.824,1.084c0.463,0.125,0.827,0.224,1.075,0.291
							c0.24,0.089,0.367,0.136,0.367,0.136l16.264-49.818c0,0-0.223-0.078-0.641-0.225c-0.424-0.122-1.046-0.301-1.837-0.528
							c-1.586-0.443-3.852-1.077-6.571-1.838c-2.737-0.611-5.945-1.283-9.382-1.93c-1.721-0.239-3.5-0.486-5.307-0.737
							c-0.904-0.12-1.815-0.241-2.73-0.363c-0.913-0.095-1.826-0.148-2.742-0.223c-1.83-0.131-3.66-0.262-5.462-0.39
							c-1.795-0.088-3.547-0.077-5.25-0.11c-3.419-0.104-6.544,0.073-9.235,0.188c-2.704,0.076-4.897,0.331-6.447,0.468
							c-1.546,0.147-2.43,0.231-2.43,0.231L380.167,125.945z"/>
					</g>
					<path fill-rule="evenodd" clip-rule="evenodd" fill="#231F20" d="M412.853,99.325l-1.002,5.145c0,0,2.095,0.431,4.189,0.862
						c2.065,0.546,4.117,1.141,4.117,1.141l1.449-5.037c0,0-2.165-0.627-4.342-1.2C415.058,99.78,412.853,99.325,412.853,99.325z"/>
					<path fill-rule="evenodd" clip-rule="evenodd" fill="#231F20" d="M396.849,97.388l-0.244,5.235c0,0,2.14,0.156,4.279,0.312
						c1.07,0.077,2.142,0.139,2.934,0.275c0.795,0.109,1.326,0.182,1.326,0.182l0.658-5.2c0,0-0.557-0.076-1.393-0.19
						c-0.833-0.142-1.956-0.208-3.077-0.29C399.091,97.551,396.849,97.388,396.849,97.388z"/>
					<path fill-rule="evenodd" clip-rule="evenodd" fill="#231F20" d="M380.813,97.706l0.422,5.224c0,0,0.537-0.051,1.342-0.127
						c0.806-0.056,1.882-0.085,2.958-0.135c1.076-0.046,2.151-0.092,2.958-0.126c0.403-0.017,0.74-0.031,0.975-0.041
						c0.235,0.003,0.37,0.005,0.37,0.005l-0.063-5.241c0,0-0.14-0.002-0.386-0.005c-0.245,0.01-0.596,0.024-1.016,0.041
						c-0.84,0.036-1.961,0.083-3.082,0.13c-1.121,0.053-2.243,0.084-3.082,0.143C381.372,97.653,380.813,97.706,380.813,97.706z"/>
				</g>
			</g>
			<g>
				<g>
					<g>
						<path fill="none" d="M416.339,129.114c0,0,2.041,0.755,5.103,1.889c0.741,0.339,1.544,0.706,2.394,1.095
							c0.427,0.189,0.865,0.384,1.313,0.583c0.45,0.196,0.914,0.385,1.351,0.656c0.895,0.495,1.82,1.006,2.76,1.526
							c0.474,0.254,0.95,0.51,1.429,0.768c0.478,0.26,0.919,0.602,1.383,0.897c2.466,1.616,4.933,3.232,7.245,4.748
							c3.637,2.319,7.42,4.212,10.832,5.607c1.65,0.751,3.348,1.239,4.778,1.734c0.726,0.233,1.406,0.45,2.034,0.652
							c0.643,0.176,1.247,0.316,1.787,0.45c2.167,0.522,3.413,0.784,3.413,0.784l10.027-51.438c0,0-0.204-0.078-0.575-0.149
							c-0.094-0.016-0.198-0.034-0.312-0.054c-0.116-0.051-0.242-0.102-0.379-0.151c-0.273-0.126-0.584-0.116-0.95-0.34
							c-0.72-0.302-1.627-0.728-2.693-1.418c-2.36-1.545-4.877-3.193-7.394-4.841c-0.794-0.501-1.559-1.042-2.376-1.504
							c-0.822-0.456-1.641-0.911-2.453-1.361c-1.631-0.891-3.236-1.767-4.789-2.615c-0.768-0.439-1.565-0.794-2.342-1.148
							c-0.777-0.354-1.537-0.7-2.277-1.037c-1.484-0.665-2.887-1.293-4.182-1.874c-2.62-1.082-4.867-1.823-6.415-2.403
							c-1.558-0.557-2.447-0.875-2.447-0.875L416.339,129.114z"/>
					</g>
					<path fill-rule="evenodd" clip-rule="evenodd" fill="#231F20" d="M456.528,118.869l-2.531,4.589c0,0,0.523,0.283,1.309,0.708
						c0.765,0.459,1.888,0.895,2.98,1.382c0.553,0.23,1.09,0.494,1.622,0.68c0.535,0.179,1.034,0.346,1.462,0.489
						c0.856,0.284,1.428,0.473,1.428,0.473l1.485-5.026c0,0-0.499-0.167-1.248-0.417c-0.375-0.124-0.812-0.269-1.28-0.424
						c-0.466-0.161-0.941-0.399-1.428-0.602c-0.962-0.433-1.953-0.805-2.634-1.222C456.993,119.121,456.528,118.869,456.528,118.869
						z"/>
					<path fill-rule="evenodd" clip-rule="evenodd" fill="#231F20" d="M443.106,110.462l-2.582,4.561c0,0,0.468,0.256,1.17,0.641
						c0.719,0.356,1.612,0.943,2.501,1.538c1.788,1.171,3.575,2.343,3.575,2.343l2.975-4.315c0,0-1.884-1.234-3.768-2.469
						c-0.938-0.624-1.88-1.241-2.637-1.62C443.601,110.733,443.106,110.462,443.106,110.462z"/>
					<path fill-rule="evenodd" clip-rule="evenodd" fill="#231F20" d="M428.506,103.696l-1.81,4.918c0,0,0.501,0.182,1.254,0.455
						c0.752,0.272,1.766,0.611,2.725,1.083c1.945,0.878,3.891,1.756,3.891,1.756l2.25-4.733c0,0-2.055-0.927-4.109-1.854
						c-1.015-0.496-2.083-0.856-2.877-1.145C429.036,103.889,428.506,103.696,428.506,103.696z"/>
				</g>
			</g>
			<g>
				<g>
					<g>
						<path fill="none" d="M462.161,150.503c0,0,0.078,0.017,0.229,0.05c0.15,0.035,0.374,0.082,0.673,0.124
							c0.596,0.087,1.47,0.216,2.583,0.38c2.217,0.353,5.445,0.601,9.293,0.586c0.959-0.04,1.958-0.081,2.992-0.123
							c0.516-0.029,1.041-0.059,1.574-0.089c0.524-0.061,1.056-0.123,1.596-0.187c1.076-0.145,2.182-0.293,3.312-0.445
							c1.128-0.164,2.227-0.435,3.371-0.672c2.307-0.456,4.535-1.158,6.82-1.874c1.151-0.349,2.211-0.807,3.324-1.224
							c1.094-0.436,2.227-0.853,3.253-1.359c8.513-3.848,15.562-9.038,20.232-13.202c1.142-1.061,2.188-2.033,3.116-2.895
							c0.923-0.867,1.646-1.662,2.278-2.3c0.62-0.646,1.107-1.153,1.439-1.499c0.333-0.345,0.491-0.539,0.49-0.539l-38.744-35.288
							c0,0-0.073,0.101-0.229,0.253c-0.152,0.156-0.377,0.385-0.663,0.677c-0.288,0.282-0.616,0.676-1.023,1.043
							c-0.407,0.369-0.86,0.791-1.347,1.26c-1.979,1.791-4.703,3.63-7.064,4.702c-0.299,0.178-0.582,0.235-0.864,0.354
							c-0.279,0.091-0.563,0.266-0.824,0.316c-0.522,0.128-1.033,0.352-1.479,0.396c-0.921,0.253-1.659,0.239-2.283,0.291
							c-0.614-0.031-1.114-0.01-1.467-0.107c-0.353-0.039-0.563-0.044-0.562-0.068L462.161,150.503z"/>
					</g>
					<path fill-rule="evenodd" clip-rule="evenodd" fill="#231F20" d="M499.133,114.431l3.142,4.195c0,0,0.47-0.348,1.175-0.871
						c0.672-0.56,1.567-1.306,2.463-2.053c0.888-0.754,1.713-1.572,2.358-2.159c0.318-0.298,0.584-0.546,0.77-0.719
						c0.176-0.182,0.277-0.286,0.277-0.286l-3.694-3.718c0,0-0.094,0.097-0.257,0.266c-0.172,0.16-0.418,0.39-0.712,0.665
						c-0.598,0.541-1.361,1.301-2.18,1.996c-0.824,0.687-1.647,1.374-2.266,1.889C499.563,114.113,499.133,114.431,499.133,114.431z
						"/>
					<path fill-rule="evenodd" clip-rule="evenodd" fill="#231F20" d="M485.739,121.635l1.668,4.969c0,0,0.143-0.044,0.394-0.121
						c0.242-0.093,0.59-0.227,1.007-0.387c0.821-0.344,1.966-0.71,3.025-1.239c1.063-0.519,2.156-0.992,2.926-1.427
						c0.772-0.433,1.286-0.721,1.286-0.721l-2.578-4.563c0,0-0.465,0.261-1.161,0.653c-0.694,0.396-1.673,0.812-2.626,1.28
						c-0.951,0.479-1.966,0.793-2.697,1.104c-0.37,0.144-0.679,0.263-0.896,0.347C485.866,121.597,485.739,121.635,485.739,121.635z
						"/>
					<path fill-rule="evenodd" clip-rule="evenodd" fill="#231F20" d="M470.917,123.464l-0.484,5.219c0,0,0.604,0.03,1.51,0.076
						c0.906,0.035,2.116,0.137,3.323,0.043c1.207-0.055,2.418-0.078,3.31-0.233c0.896-0.118,1.494-0.196,1.494-0.196l-0.779-5.183
						c0,0-0.521,0.068-1.303,0.171c-0.779,0.143-1.83,0.151-2.879,0.203c-1.049,0.088-2.096-0.01-2.882-0.038
						C471.441,123.489,470.917,123.464,470.917,123.464z"/>
				</g>
			</g>
			<g>
				<g>
					<g>
						<path fill="none" d="M528.737,125.236c0,0,0.666-0.759,1.831-2.087c1.188-1.32,2.725-3.278,4.539-5.651
							c3.587-4.762,7.752-11.415,11.07-18.48c3.361-7.044,5.871-14.503,7.272-20.318c0.369-1.444,0.631-2.806,0.894-3.995
							c0.268-1.187,0.451-2.245,0.589-3.123c0.284-1.749,0.445-2.748,0.445-2.748l-51.873-7.451c0,0-0.078,0.471-0.216,1.294
							c-0.058,0.412-0.138,0.914-0.281,1.496c-0.139,0.581-0.243,1.237-0.434,1.956c-0.685,2.873-1.993,6.759-3.766,10.472
							c-1.749,3.725-3.933,7.218-5.727,9.589c-0.913,1.163-1.652,2.158-2.224,2.762c-0.551,0.634-0.865,0.997-0.865,0.997
							L528.737,125.236z"/>
					</g>
					<path fill-rule="evenodd" clip-rule="evenodd" fill="#231F20" d="M524.903,76.593l5.001,1.569c0,0,0.174-0.549,0.435-1.373
						c0.248-0.828,0.527-1.948,0.829-3.061c0.319-1.108,0.522-2.249,0.715-3.093c0.182-0.847,0.303-1.412,0.303-1.412l-5.146-0.994
						c0,0-0.113,0.527-0.284,1.318c-0.181,0.789-0.366,1.853-0.668,2.891c-0.284,1.042-0.543,2.09-0.775,2.866
						C525.067,76.078,524.903,76.593,524.903,76.593z"/>
					<path fill-rule="evenodd" clip-rule="evenodd" fill="#231F20" d="M518.876,90.86l4.614,2.486c0,0,0.27-0.508,0.673-1.271
						c0.421-0.754,0.91-1.795,1.4-2.836c0.501-1.035,0.983-2.079,1.303-2.881c0.334-0.795,0.557-1.326,0.557-1.326l-4.849-1.989
						c0,0-0.21,0.499-0.524,1.246c-0.298,0.755-0.753,1.736-1.225,2.709c-0.46,0.979-0.92,1.958-1.316,2.667
						C519.129,90.383,518.876,90.86,518.876,90.86z"/>
					<path fill-rule="evenodd" clip-rule="evenodd" fill="#231F20" d="M510.301,103.684l4.042,3.335c0,0,0.359-0.452,0.897-1.13
						c0.531-0.683,1.274-1.57,1.929-2.519c0.665-0.94,1.36-1.862,1.833-2.585c0.471-0.724,0.785-1.206,0.785-1.206l-4.39-2.864
						c0,0-0.295,0.453-0.736,1.132c-0.442,0.679-1.096,1.541-1.719,2.423c-0.611,0.892-1.308,1.717-1.804,2.356
						C510.636,103.261,510.301,103.684,510.301,103.684z"/>
				</g>
			</g>
			<g>
				<g>
					<g>
						<path fill="none" d="M555.378,68.834c0,0,0.038-0.25,0.109-0.721c0.055-0.478,0.135-1.178,0.237-2.069
							c0.093-0.894,0.23-1.968,0.33-3.224c0.071-1.265,0.151-2.693,0.239-4.25c0.053-1.568,0.03-3.296,0.025-5.108
							c-0.051-1.829-0.186-3.782-0.327-5.791c-0.435-4.063-1.058-8.425-2.254-12.817c-1.077-4.382-2.758-8.746-4.552-12.738
							c-0.99-1.973-1.945-3.885-2.969-5.64c-1.075-1.732-2.061-3.392-3.095-4.841c-1.048-1.442-2.029-2.75-2.91-3.898
							c-0.925-1.107-1.761-2.047-2.445-2.824c-0.69-0.771-1.229-1.385-1.612-1.781c-0.391-0.386-0.6-0.591-0.6-0.591l-37.358,36.752
							c0,0,0.06,0.052,0.172,0.151c0.104,0.104,0.223,0.276,0.4,0.477c0.171,0.205,0.396,0.439,0.649,0.713
							c0.203,0.308,0.443,0.644,0.729,0.994c0.274,0.36,0.481,0.815,0.791,1.234c0.266,0.454,0.486,0.978,0.787,1.479
							c0.442,1.12,0.988,2.308,1.3,3.727c0.406,1.354,0.584,2.915,0.78,4.397c0.042,0.779,0.083,1.533,0.121,2.247
							c-0.021,0.748,0.012,1.441-0.01,2.105c-0.049,0.673-0.081,1.29-0.104,1.837c-0.043,0.553-0.121,1.049-0.158,1.451
							c-0.041,0.404-0.074,0.722-0.096,0.938c-0.036,0.22-0.056,0.337-0.056,0.337L555.378,68.834z"/>
					</g>
					<path fill-rule="evenodd" clip-rule="evenodd" fill="#231F20" d="M522.584,31.707l4.604-2.504c0,0-0.068-0.132-0.188-0.363
						c-0.118-0.232-0.287-0.563-0.533-0.937c-0.473-0.757-1.104-1.767-1.735-2.776c-0.71-0.957-1.42-1.913-1.952-2.63
						c-0.261-0.363-0.493-0.653-0.672-0.843c-0.172-0.196-0.271-0.308-0.271-0.308l-4.014,3.37c0,0,0.088,0.099,0.241,0.273
						c0.161,0.168,0.367,0.426,0.598,0.75c0.474,0.638,1.106,1.488,1.737,2.338c0.562,0.899,1.123,1.797,1.544,2.471
						c0.22,0.331,0.37,0.627,0.475,0.834C522.523,31.589,522.584,31.707,522.584,31.707z"/>
					<path fill-rule="evenodd" clip-rule="evenodd" fill="#231F20" d="M527.489,46.079l5.165-0.887c0,0-0.108-0.578-0.272-1.445
						c-0.086-0.433-0.17-0.94-0.29-1.479c-0.14-0.536-0.288-1.107-0.437-1.678c-0.149-0.571-0.299-1.142-0.439-1.677
						c-0.155-0.531-0.336-1.018-0.474-1.44c-0.285-0.841-0.476-1.401-0.476-1.401l-4.932,1.775c0,0,0.171,0.503,0.427,1.259
						c0.124,0.379,0.288,0.814,0.429,1.293c0.126,0.483,0.26,0.999,0.394,1.514c0.135,0.516,0.27,1.031,0.396,1.514
						c0.109,0.487,0.183,0.949,0.261,1.342C527.391,45.554,527.489,46.079,527.489,46.079z"/>
					<path fill-rule="evenodd" clip-rule="evenodd" fill="#231F20" d="M528.017,61.354l5.219,0.477c0,0,0.074-0.575,0.111-1.447
						c0.043-0.871,0.129-2.03,0.164-3.193c0-1.166-0.001-2.331-0.001-3.206c-0.012-0.875-0.065-1.458-0.065-1.458l-5.235,0.248
						c0,0,0.051,0.533,0.062,1.337c0,0.805,0,1.878,0.001,2.951c-0.033,1.073-0.114,2.146-0.152,2.951
						C528.087,60.82,528.016,61.354,528.017,61.354z"/>
				</g>
			</g>
			<g>
				<g>
					<g>
						<path fill="none" d="M535.556,2.543c0,0-0.844-0.815-2.319-2.241c-0.374-0.351-0.787-0.74-1.237-1.163
							c-0.469-0.39-0.975-0.812-1.516-1.262c-1.092-0.878-2.311-1.936-3.694-2.927c-1.389-0.976-2.903-2.035-4.522-3.1
							c-1.632-0.975-3.367-1.984-5.173-3.003c-1.807-0.902-3.687-1.814-5.605-2.717c-1.907-0.785-3.854-1.561-5.808-2.317
							c-7.794-2.821-15.408-4.284-21.008-5.122c-2.775-0.349-5.134-0.716-6.708-0.797c-1.595-0.125-2.507-0.196-2.507-0.196
							l-3.925,52.258c0,0,0.573,0.043,1.577,0.118c1.033,0.031,2.353,0.291,4.012,0.476c3.224,0.484,7.362,1.308,10.786,2.563
							c3.467,1.231,6.176,2.788,7.808,4.038c0.44,0.297,0.74,0.625,1.076,0.867c0.162,0.124,0.313,0.239,0.454,0.346
							c0.116,0.121,0.224,0.231,0.32,0.331c0.391,0.393,0.631,0.6,0.631,0.6L535.556,2.543z"/>
					</g>
					<path fill-rule="evenodd" clip-rule="evenodd" fill="#231F20" d="M485.381,7.277l1.029-5.139c0,0-0.563-0.106-1.409-0.266
						c-0.848-0.139-1.97-0.417-3.105-0.536c-2.267-0.295-4.532-0.591-4.532-0.591l-0.555,5.212c0,0,2.153,0.281,4.307,0.562
						c1.082,0.11,2.133,0.377,2.936,0.507C484.849,7.176,485.381,7.277,485.381,7.277z"/>
					<path fill-rule="evenodd" clip-rule="evenodd" fill="#231F20" d="M500.14,11.791l2.11-4.797c0,0-2.162-0.862-4.325-1.724
						c-2.204-0.711-4.409-1.422-4.409-1.422l-1.467,5.032c0,0,2.05,0.661,4.101,1.322C498.145,10.996,500.14,11.791,500.14,11.791z"
						/>
					<path fill-rule="evenodd" clip-rule="evenodd" fill="#231F20" d="M513.032,19.845l3.436-3.958c0,0-0.458-0.375-1.146-0.938
						c-0.694-0.552-1.583-1.344-2.576-1.983c-0.973-0.668-1.938-1.351-2.677-1.833c-0.762-0.444-1.27-0.74-1.27-0.74l-2.682,4.503
						c0,0,0.462,0.268,1.155,0.669c0.668,0.438,1.535,1.056,2.415,1.657c0.901,0.574,1.69,1.289,2.315,1.783
						C512.62,19.509,513.032,19.845,513.032,19.845z"/>
				</g>
			</g>
			<g>
				<g>
					<g>
						<path fill="none" d="M475.458-22.302c0,0-0.911-0.068-2.507-0.188c-1.594-0.113-3.806-0.137-6.494-0.219
							c-1.352-0.056-2.774-0.032-4.277-0.001c-1.506,0.029-3.094,0.059-4.736,0.09c-1.626,0.064-3.279,0.184-4.973,0.281
							c-1.687,0.11-3.423,0.186-5.094,0.378c-3.364,0.344-6.763,0.638-9.836,1.11c-3.103,0.423-6.002,0.817-8.418,1.271
							c-2.435,0.424-4.465,0.777-5.885,1.024c-1.397,0.287-2.195,0.451-2.195,0.451l10.179,51.408c0,0,0.66-0.137,1.816-0.377
							c1.147-0.198,2.787-0.482,4.753-0.822c1.976-0.379,4.244-0.675,6.675-1.009c2.448-0.388,4.989-0.583,7.55-0.856
							c1.289-0.159,2.532-0.195,3.771-0.278c1.233-0.068,2.459-0.167,3.623-0.213c1.15-0.02,2.261-0.039,3.315-0.056
							c1.057-0.027,2.054-0.051,2.936-0.002c1.777,0.068,3.291,0.06,4.297,0.139c1.003,0.081,1.577,0.126,1.577,0.126
							L475.458-22.302z"/>
					</g>
					<path fill-rule="evenodd" clip-rule="evenodd" fill="#231F20" d="M438.584,7.33l-0.757-5.186c0,0-2.23,0.28-4.434,0.693
						c-2.209,0.384-4.418,0.767-4.418,0.767l0.949,5.154c0,0,2.163-0.375,4.325-0.75C436.409,7.601,438.584,7.33,438.584,7.33z"/>
					<path fill-rule="evenodd" clip-rule="evenodd" fill="#231F20" d="M454.206,5.664l-0.333-5.23c0,0-0.563,0.035-1.407,0.086
						c-0.846,0.043-1.971,0.12-3.088,0.249c-2.239,0.226-4.479,0.451-4.479,0.451l0.585,5.208c0,0,2.179-0.22,4.358-0.439
						c1.089-0.126,2.18-0.2,2.999-0.241C453.66,5.697,454.206,5.664,454.206,5.664z"/>
					<path fill-rule="evenodd" clip-rule="evenodd" fill="#231F20" d="M469.81,5.449l0.234-5.236c0,0-2.269-0.063-4.537-0.125
						c-1.136-0.056-2.263,0.019-3.112,0.018c-0.848,0.015-1.414,0.025-1.414,0.025l0.104,5.24c0,0,0.546-0.01,1.365-0.025
						c0.818,0.001,1.912-0.073,3.001-0.018C467.63,5.389,469.81,5.449,469.81,5.449z"/>
				</g>
			</g>
			<g>
				<g>
					<g>
						<path fill="none" d="M421.042-18.103c0,0-0.798,0.165-2.194,0.453c-1.39,0.299-3.406,0.679-5.77,1.224
							c-2.354,0.562-5.102,1.216-8.045,1.917c-2.966,0.762-6.162,1.661-9.339,2.523c-3.191,0.924-6.408,1.987-9.406,2.922
							c-3.019,1.034-5.852,2.1-8.268,2.974c-2.426,0.924-4.471,1.837-5.889,2.416c-1.421,0.6-2.233,0.942-2.233,0.942l21.309,47.878
							c0,0,0.562-0.233,1.544-0.641c0.998-0.397,2.348-1.023,4.097-1.688c1.791-0.632,3.835-1.411,6.097-2.192
							c2.338-0.713,4.776-1.534,7.306-2.267c2.572-0.695,5.144-1.39,7.555-2.042c2.489-0.593,4.813-1.147,6.805-1.622
							c1.989-0.46,3.636-0.762,4.793-1.013c1.156-0.24,1.816-0.377,1.816-0.377L421.042-18.103z"/>
					</g>
					<path fill-rule="evenodd" clip-rule="evenodd" fill="#231F20" d="M392.676,18.433l-1.742-4.943c0,0-2.12,0.77-4.24,1.54
						c-1.066,0.365-2.107,0.813-2.89,1.143c-0.783,0.328-1.305,0.547-1.305,0.547l2.012,4.839c0,0,0.503-0.211,1.258-0.527
						c0.754-0.318,1.756-0.751,2.793-1.105C390.619,19.18,392.676,18.433,392.676,18.433z"/>
					<path fill-rule="evenodd" clip-rule="evenodd" fill="#231F20" d="M407.705,13.818l-1.365-5.06c0,0-2.164,0.59-4.327,1.18
						c-1.086,0.275-2.149,0.654-2.956,0.895c-0.804,0.253-1.34,0.422-1.34,0.422l1.561,5.003c0,0,0.522-0.165,1.307-0.412
						c0.788-0.234,1.819-0.604,2.885-0.874C405.587,14.395,407.705,13.818,407.705,13.818z"/>
					<path fill-rule="evenodd" clip-rule="evenodd" fill="#231F20" d="M422.979,10.146l-1.084-5.127c0,0-0.548,0.113-1.37,0.283
						c-0.823,0.165-1.918,0.395-3.003,0.666c-2.174,0.518-4.349,1.036-4.349,1.036l1.235,5.094c0,0,2.139-0.51,4.277-1.02
						c1.067-0.267,2.142-0.493,2.95-0.654C422.441,10.258,422.979,10.146,422.979,10.146z"/>
				</g>
			</g>
			<g>
				<g>
					<g>
						<path fill="none" d="M369.898-2.731c0,0-0.203,0.086-0.583,0.247c-0.384,0.183-0.947,0.451-1.664,0.792
							c-1.431,0.695-3.475,1.688-5.928,2.881c-4.933,2.735-11.529,6.317-18.041,11.659l-1.214,0.946
							c-0.403,0.324-0.804,0.704-1.204,1.054c-0.796,0.719-1.588,1.436-2.375,2.146c-0.781,0.727-1.557,1.403-2.309,2.165
							c-0.742,0.798-1.476,1.586-2.197,2.361c-0.71,0.785-1.409,1.557-2.093,2.313c-0.683,0.742-1.301,1.636-1.92,2.423
							c-0.607,0.813-1.198,1.604-1.77,2.37c-0.563,0.773-1.117,1.493-1.587,2.301c-0.966,1.563-1.828,3.014-2.575,4.307
							c-0.778,1.257-1.288,2.536-1.769,3.515c-0.924,1.999-1.42,3.155-1.42,3.155l48.524,19.793c0,0,0.124-0.199,0.284-0.57
							c0.107-0.183,0.097-0.426,0.327-0.687c0.184-0.266,0.373-0.573,0.552-0.927c0.06-0.18,0.248-0.362,0.4-0.556
							c0.157-0.194,0.313-0.398,0.468-0.614c0.177-0.213,0.257-0.446,0.506-0.675c0.23-0.23,0.46-0.469,0.688-0.718
							s0.454-0.506,0.678-0.773c0.254-0.263,0.597-0.522,0.888-0.794c0.299-0.274,0.601-0.552,0.903-0.83
							c0.157-0.14,0.282-0.288,0.462-0.426l0.559-0.412c2.675-2.301,6.614-4.438,9.462-6.057c1.568-0.756,2.875-1.386,3.789-1.827
							c0.458-0.223,0.818-0.398,1.063-0.517c0.263-0.109,0.404-0.167,0.404-0.167L369.898-2.731z"/>
					</g>
					<path fill-rule="evenodd" clip-rule="evenodd" fill="#231F20" d="M353.307,42.426l-4.048-3.329c0,0-1.423,1.907-2.846,3.813
						c-0.615,1.028-1.231,2.056-1.692,2.827c-0.229,0.386-0.42,0.708-0.554,0.934c-0.14,0.222-0.195,0.363-0.195,0.363l4.649,2.42
						c0,0,0.046-0.124,0.172-0.318c0.119-0.198,0.289-0.481,0.492-0.82c0.406-0.68,0.946-1.586,1.487-2.492
						C352.039,44.124,353.307,42.426,353.307,42.426z"/>
					<path fill-rule="evenodd" clip-rule="evenodd" fill="#231F20" d="M364.655,32.129l-3.017-4.286c0,0-0.125,0.071-0.324,0.229
						c-0.202,0.154-0.489,0.375-0.835,0.639c-0.69,0.529-1.611,1.235-2.532,1.94c-0.94,0.675-1.794,1.48-2.443,2.071
						c-0.649,0.589-1.083,0.982-1.083,0.982l3.568,3.839c0,0,0.396-0.36,0.991-0.9c0.594-0.541,1.369-1.279,2.249-1.906
						c0.854-0.655,1.708-1.31,2.349-1.801c0.32-0.246,0.587-0.45,0.773-0.594C364.536,32.195,364.655,32.129,364.655,32.129z"/>
					<path fill-rule="evenodd" clip-rule="evenodd" fill="#231F20" d="M378.091,24.421l-2.271-4.724c0,0-0.512,0.248-1.279,0.62
						c-0.762,0.387-1.805,0.833-2.8,1.399c-1.995,1.119-3.99,2.238-3.99,2.238l2.656,4.519c0,0,1.893-1.062,3.785-2.124
						c0.942-0.538,1.949-0.966,2.676-1.335C377.602,24.658,378.091,24.421,378.091,24.421z"/>
				</g>
			</g>
			<g>
				<g>
					<g>
						<path fill="none" d="M321.25,41.903c0,0-0.125,0.288-0.359,0.829c-0.195,0.563-0.48,1.391-0.843,2.443
							c-0.354,1.056-0.773,2.343-1.227,3.825c-0.414,1.49-0.75,3.203-1.138,5.066c-0.43,1.872-0.633,3.878-0.838,6.013
							c-0.094,1.063-0.218,2.171-0.263,3.275c-0.005,1.093-0.011,2.21-0.016,3.346c0.015,1.129-0.001,2.306,0.073,3.442
							c0.103,1.122,0.208,2.257,0.313,3.402c0.13,1.129,0.208,2.328,0.412,3.417c0.202,1.098,0.403,2.201,0.605,3.304
							c1.727,8.792,4.8,16.3,7.258,21.574c1.263,2.588,2.321,4.771,3.132,6.154c0.793,1.425,1.246,2.24,1.246,2.24l45.543-25.927
							c0,0-0.271-0.487-0.745-1.339c-0.525-0.858-1.056-2.045-1.769-3.464c-1.317-2.806-2.702-6.442-3.248-9.366
							c-0.591-2.975-0.449-5.041-0.21-6.34c0.096-0.316,0.096-0.63,0.169-0.886c0.113-0.243,0.188-0.458,0.24-0.641
							c0.053-0.182,0.082-0.33,0.103-0.431c0.056-0.094,0.086-0.145,0.086-0.145L321.25,41.903z"/>
					</g>
					<path fill-rule="evenodd" clip-rule="evenodd" fill="#231F20" d="M348.684,85.477l-4.869,1.939c0,0,0.224,0.532,0.56,1.329
						c0.348,0.791,0.76,1.875,1.262,2.907c1.014,2.058,2.027,4.117,2.027,4.117l4.64-2.438c0,0-0.957-1.943-1.914-3.887
						c-0.475-0.974-0.854-1.984-1.182-2.725C348.895,85.974,348.684,85.477,348.684,85.477z"/>
					<path fill-rule="evenodd" clip-rule="evenodd" fill="#231F20" d="M344.858,70.657l-5.212,0.551c0,0,0.059,0.59,0.148,1.476
						c0.1,0.883,0.358,2.031,0.563,3.192c0.11,0.579,0.219,1.157,0.322,1.7c0.143,0.529,0.276,1.023,0.39,1.447
						c0.229,0.847,0.382,1.411,0.382,1.411l5.046-1.416c0,0-0.14-0.517-0.35-1.292c-0.105-0.388-0.229-0.84-0.36-1.325
						c-0.092-0.491-0.19-1.015-0.288-1.539c-0.183-1.049-0.424-2.093-0.512-2.885C344.91,71.186,344.858,70.657,344.858,70.657z"/>
					<path fill-rule="evenodd" clip-rule="evenodd" fill="#231F20" d="M346.104,55.739l-5.022-1.499c0,0-0.046,0.144-0.128,0.395
						c-0.07,0.254-0.227,0.603-0.302,1.05c-0.186,0.886-0.434,2.066-0.681,3.247c-0.145,0.588-0.209,1.185-0.258,1.747
						c-0.056,0.561-0.108,1.084-0.153,1.533c-0.087,0.897-0.146,1.496-0.146,1.496l5.233,0.295c0,0,0.053-0.524,0.131-1.31
						c0.039-0.393,0.084-0.852,0.132-1.343c0.04-0.493,0.094-1.017,0.225-1.526c0.215-1.029,0.43-2.057,0.591-2.829
						c0.062-0.391,0.204-0.692,0.265-0.913C346.063,55.863,346.104,55.739,346.104,55.739z"/>
				</g>
			</g>
			<g>
				<g>
					<g>
						<path fill="none" d="M329.604,110.234c0,0,0.114,0.203,0.328,0.584c0.215,0.377,0.521,0.955,0.941,1.619
							c0.838,1.337,2.006,3.323,3.48,5.557c2.935,4.5,7.05,10.1,11.325,15.362c4.272,5.267,8.728,10.124,12.09,13.727
							c1.699,1.759,3.114,3.225,4.105,4.251c0.989,1.032,1.569,1.585,1.569,1.585l37.124-36.989c0,0-0.5-0.473-1.312-1.325
							c-0.82-0.848-1.991-2.061-3.396-3.515c-2.729-2.933-6.335-6.86-9.567-10.854c-3.233-3.99-6.175-8.003-8.122-10.991
							c-0.987-1.494-1.694-2.728-2.252-3.592c-0.283-0.433-0.447-0.767-0.578-0.997c-0.126-0.229-0.193-0.351-0.193-0.351
							L329.604,110.234z"/>
					</g>
					<path fill-rule="evenodd" clip-rule="evenodd" fill="#231F20" d="M374.843,124.23l-3.879,3.524c0,0,1.522,1.645,3.045,3.29
						c1.531,1.636,3.101,3.23,3.102,3.23l3.758-3.653c0,0-1.542-1.566-3.043-3.168C376.334,125.841,374.843,124.23,374.843,124.23z"
						/>
					<path fill-rule="evenodd" clip-rule="evenodd" fill="#231F20" d="M364.714,112.209l-4.141,3.213c0,0,0.348,0.443,0.869,1.109
						c0.529,0.658,1.198,1.569,1.93,2.422c1.44,1.728,2.88,3.456,2.88,3.456l3.987-3.401c0,0-1.403-1.684-2.806-3.367
						c-0.714-0.832-1.36-1.715-1.875-2.354C365.052,112.64,364.714,112.209,364.714,112.209z"/>
					<path fill-rule="evenodd" clip-rule="evenodd" fill="#231F20" d="M355.798,99.408l-4.469,2.737c0,0,0.299,0.484,0.747,1.209
						c0.443,0.729,1.043,1.695,1.691,2.624c0.635,0.938,1.27,1.877,1.746,2.581c0.47,0.709,0.808,1.161,0.808,1.161l4.275-3.031
						c0,0-0.328-0.438-0.779-1.12c-0.458-0.678-1.069-1.582-1.68-2.485c-0.626-0.895-1.2-1.82-1.624-2.518
						C356.084,99.871,355.798,99.408,355.798,99.408z"/>
				</g>
			</g>
			<g>
				<g>
					<g>
						<path fill="none" d="M363.443,152.921c0,0,0.574,0.569,1.579,1.564s2.436,2.428,4.184,4.074
							c3.466,3.366,8.18,7.642,12.928,11.842c9.517,8.354,19.322,16.069,19.321,16.069l32.547-41.073c0,0-8.924-7.03-17.32-14.401
							c-4.173-3.696-8.29-7.424-11.232-10.288c-1.506-1.415-2.705-2.619-3.552-3.458c-0.847-0.838-1.331-1.318-1.331-1.318
							L363.443,152.921z"/>
					</g>
					<path fill-rule="evenodd" clip-rule="evenodd" fill="#231F20" d="M409.313,156.715l-3.354,4.027c0,0,1.72,1.415,3.439,2.83
						c1.717,1.419,3.458,2.805,3.458,2.805l3.282-4.086c0,0-1.725-1.372-3.423-2.776
						C411.014,158.115,409.313,156.715,409.313,156.715z"/>
					<path fill-rule="evenodd" clip-rule="evenodd" fill="#231F20" d="M397.355,146.391l-3.498,3.903c0,0,1.666,1.482,3.333,2.965
						c1.686,1.458,3.372,2.916,3.372,2.916l3.415-3.976c0,0-1.666-1.44-3.332-2.881C399,147.854,397.355,146.391,397.355,146.391z"
						/>
					<path fill-rule="evenodd" clip-rule="evenodd" fill="#231F20" d="M385.868,135.644l-3.669,3.743c0,0,0.397,0.393,0.993,0.983
						c0.606,0.578,1.415,1.349,2.223,2.12c0.808,0.771,1.617,1.542,2.223,2.119c0.615,0.568,1.025,0.947,1.025,0.947l3.57-3.838
						c0,0-0.404-0.373-1.011-0.933c-0.597-0.569-1.393-1.328-2.188-2.087s-1.592-1.518-2.188-2.087
						C386.258,136.031,385.868,135.644,385.868,135.644z"/>
				</g>
			</g>
			<g>
				<g>
					<g>
						<path fill="none" d="M401.455,186.471c0,0,2.456,1.921,6.139,4.802c3.703,2.838,8.65,6.601,13.658,10.239
							c9.993,7.319,20.197,14.228,20.197,14.228l29.47-43.335c0,0-9.531-6.454-18.765-13.218c-4.633-3.366-9.168-6.818-12.559-9.415
							c-3.355-2.625-5.593-4.374-5.593-4.374L401.455,186.471z"/>
					</g>
					<polygon fill-rule="evenodd" clip-rule="evenodd" fill="#231F20" points="447.085,185.515 444.065,189.799 451.361,194.874 
						454.329,190.555 					"/>
					<polygon fill-rule="evenodd" clip-rule="evenodd" fill="#231F20" points="434.256,176.253 431.137,180.465 438.321,185.704 
						441.384,181.451 					"/>
					<path fill-rule="evenodd" clip-rule="evenodd" fill="#231F20" d="M421.711,166.704l-3.229,4.129c0,0,1.757,1.365,3.513,2.73
						c1.768,1.35,3.535,2.7,3.535,2.7l3.166-4.177c0,0-1.752-1.339-3.504-2.678C423.451,168.057,421.711,166.704,421.711,166.704z"
						/>
				</g>
			</g>
			<g>
				<g>
					<g>
						<path fill="none" d="M441.449,215.739c0,0,10.177,6.947,20.589,13.539c5.202,3.308,10.454,6.55,14.457,8.96
							c2.025,1.206,3.713,2.212,4.895,2.916c1.281,0.745,2.014,1.171,2.014,1.171l26.049-45.473c0,0-0.555-0.323-1.526-0.89
							c-1.058-0.63-2.568-1.53-4.382-2.61c-3.652-2.199-8.541-5.217-13.394-8.302c-9.725-6.156-19.231-12.646-19.231-12.646
							L441.449,215.739z"/>
					</g>
					<path fill-rule="evenodd" clip-rule="evenodd" fill="#231F20" d="M486.785,211.657l-2.741,4.468c0,0,1.899,1.157,3.798,2.313
						c1.911,1.144,3.821,2.286,3.821,2.286l2.67-4.51c0,0-1.891-1.132-3.781-2.263C488.668,212.805,486.785,211.657,486.785,211.657
						z"/>
					<polygon fill-rule="evenodd" clip-rule="evenodd" fill="#231F20" points="473.388,203.232 470.551,207.64 478.051,212.405 
						480.836,207.966 					"/>
					<polygon fill-rule="evenodd" clip-rule="evenodd" fill="#231F20" points="460.211,194.557 457.285,198.904 464.684,203.822 
						467.561,199.441 					"/>
				</g>
			</g>
		</g>
	</g>
</g>
</svg>
